<svg width="167" height="42" viewBox="0 0 167 42" fill="none" xmlns="http://www.w3.org/2000/svg">
<path d="M36.588 29.684V30.692H33.972V38H32.808V30.692H30.192V29.684H36.588ZM57.0292 29.684H58.1932V38H57.0292V34.16H52.9612V38H51.7972V29.684H52.9612V33.152H57.0292V29.684ZM74.2381 38V29.684H79.3141V30.68H75.4021V33.152H78.8821V34.124H75.4021V37.004H79.6141V38H74.2381ZM99.1416 34.52C99.2696 34.68 99.4296 34.892 99.6216 35.156C99.8216 35.412 100.026 35.7 100.234 36.02C100.442 36.332 100.646 36.66 100.846 37.004C101.054 37.348 101.23 37.68 101.374 38H100.102C99.9416 37.696 99.7656 37.388 99.5736 37.076C99.3896 36.764 99.2016 36.468 99.0096 36.188C98.8176 35.9 98.6256 35.632 98.4336 35.384C98.2496 35.136 98.0816 34.92 97.9296 34.736C97.8256 34.744 97.7176 34.748 97.6056 34.748C97.5016 34.748 97.3936 34.748 97.2816 34.748H96.2376V38H95.0736V29.804C95.4016 29.724 95.7656 29.672 96.1656 29.648C96.5736 29.616 96.9456 29.6 97.2816 29.6C98.4496 29.6 99.3376 29.82 99.9456 30.26C100.562 30.7 100.87 31.356 100.87 32.228C100.87 32.78 100.722 33.252 100.426 33.644C100.138 34.036 99.7096 34.328 99.1416 34.52ZM97.3776 30.62C96.8816 30.62 96.5016 30.632 96.2376 30.656V33.788H97.0656C97.4656 33.788 97.8256 33.768 98.1456 33.728C98.4656 33.688 98.7336 33.612 98.9496 33.5C99.1736 33.388 99.3456 33.232 99.4656 33.032C99.5856 32.824 99.6456 32.552 99.6456 32.216C99.6456 31.904 99.5856 31.644 99.4656 31.436C99.3456 31.228 99.1816 31.064 98.9736 30.944C98.7736 30.824 98.5336 30.74 98.2536 30.692C97.9816 30.644 97.6896 30.62 97.3776 30.62ZM122.496 38C122.36 37.64 122.232 37.288 122.112 36.944C121.992 36.592 121.868 36.236 121.74 35.876H117.972L117.216 38H116.004C116.324 37.12 116.624 36.308 116.904 35.564C117.184 34.812 117.456 34.1 117.72 33.428C117.992 32.756 118.26 32.116 118.524 31.508C118.788 30.892 119.064 30.284 119.352 29.684H120.42C120.708 30.284 120.984 30.892 121.248 31.508C121.512 32.116 121.776 32.756 122.04 33.428C122.312 34.1 122.588 34.812 122.868 35.564C123.148 36.308 123.448 37.12 123.768 38H122.496ZM121.404 34.916C121.148 34.22 120.892 33.548 120.636 32.9C120.388 32.244 120.128 31.616 119.856 31.016C119.576 31.616 119.308 32.244 119.052 32.9C118.804 33.548 118.556 34.22 118.308 34.916H121.404ZM141.085 29.6C142.253 29.6 143.149 29.824 143.773 30.272C144.405 30.712 144.721 31.372 144.721 32.252C144.721 32.732 144.633 33.144 144.457 33.488C144.289 33.824 144.041 34.1 143.713 34.316C143.393 34.524 143.001 34.676 142.537 34.772C142.073 34.868 141.549 34.916 140.965 34.916H140.041V38H138.877V29.804C139.205 29.724 139.569 29.672 139.969 29.648C140.377 29.616 140.749 29.6 141.085 29.6ZM141.181 30.62C140.685 30.62 140.305 30.632 140.041 30.656V33.92H140.917C141.317 33.92 141.677 33.896 141.997 33.848C142.317 33.792 142.585 33.704 142.801 33.584C143.025 33.456 143.197 33.284 143.317 33.068C143.437 32.852 143.497 32.576 143.497 32.24C143.497 31.92 143.433 31.656 143.305 31.448C143.185 31.24 143.017 31.076 142.801 30.956C142.593 30.828 142.349 30.74 142.069 30.692C141.789 30.644 141.493 30.62 141.181 30.62ZM162.138 38V34.664C161.586 33.808 161.066 32.964 160.578 32.132C160.09 31.3 159.63 30.484 159.198 29.684H160.566C160.87 30.34 161.21 31.008 161.586 31.688C161.962 32.36 162.35 33.008 162.75 33.632C163.142 33.008 163.526 32.36 163.902 31.688C164.278 31.008 164.622 30.34 164.934 29.684H166.23C165.798 30.484 165.338 31.3 164.85 32.132C164.362 32.956 163.846 33.792 163.302 34.64V38H162.138Z" fill="white"/>
<path d="M32.3988 21V7.14H41.6788V9.76H35.5188V12.66H40.9988V15.28H35.5188V21H32.3988ZM63.7432 18.32V21H54.4832V7.14H57.6032V18.32H63.7432ZM78.5821 14.06C78.5821 14.74 78.6621 15.3533 78.8221 15.9C78.9954 16.4467 79.2354 16.92 79.5421 17.32C79.8621 17.7067 80.2488 18.0067 80.7021 18.22C81.1554 18.4333 81.6754 18.54 82.2621 18.54C82.8354 18.54 83.3488 18.4333 83.8021 18.22C84.2688 18.0067 84.6554 17.7067 84.9621 17.32C85.2821 16.92 85.5221 16.4467 85.6821 15.9C85.8554 15.3533 85.9421 14.74 85.9421 14.06C85.9421 13.38 85.8554 12.7667 85.6821 12.22C85.5221 11.66 85.2821 11.1867 84.9621 10.8C84.6554 10.4 84.2688 10.0933 83.8021 9.88C83.3488 9.66667 82.8354 9.56 82.2621 9.56C81.6754 9.56 81.1554 9.67333 80.7021 9.9C80.2488 10.1133 79.8621 10.42 79.5421 10.82C79.2354 11.2067 78.9954 11.68 78.8221 12.24C78.6621 12.7867 78.5821 13.3933 78.5821 14.06ZM89.1621 14.06C89.1621 15.2467 88.9821 16.2933 88.6221 17.2C88.2754 18.0933 87.7954 18.8467 87.1821 19.46C86.5688 20.06 85.8354 20.5133 84.9821 20.82C84.1421 21.1267 83.2354 21.28 82.2621 21.28C81.3154 21.28 80.4221 21.1267 79.5821 20.82C78.7421 20.5133 78.0088 20.06 77.3821 19.46C76.7554 18.8467 76.2621 18.0933 75.9021 17.2C75.5421 16.2933 75.3621 15.2467 75.3621 14.06C75.3621 12.8733 75.5488 11.8333 75.9221 10.94C76.2954 10.0333 76.7954 9.27333 77.4221 8.66C78.0621 8.04667 78.7954 7.58667 79.6221 7.28C80.4621 6.97333 81.3421 6.82 82.2621 6.82C83.2088 6.82 84.1021 6.97333 84.9421 7.28C85.7821 7.58667 86.5154 8.04667 87.1421 8.66C87.7688 9.27333 88.2621 10.0333 88.6221 10.94C88.9821 11.8333 89.1621 12.8733 89.1621 14.06ZM111.468 8.62C111.628 9.16667 111.801 9.78667 111.988 10.48C112.188 11.16 112.394 11.8667 112.608 12.6C112.834 13.3333 113.061 14.0667 113.288 14.8C113.514 15.5333 113.734 16.2133 113.948 16.84C114.121 16.16 114.294 15.42 114.468 14.62C114.654 13.82 114.828 12.9933 114.988 12.14C115.148 11.2867 115.301 10.44 115.448 9.6C115.608 8.74667 115.754 7.92667 115.888 7.14H119.128C118.661 9.46 118.121 11.8133 117.508 14.2C116.908 16.5867 116.254 18.8533 115.548 21H112.688C112.221 19.72 111.768 18.38 111.328 16.98C110.888 15.5667 110.454 14.1533 110.028 12.74C109.601 14.1533 109.174 15.5667 108.748 16.98C108.321 18.38 107.874 19.72 107.408 21H104.548C103.841 18.8533 103.181 16.5867 102.568 14.2C101.968 11.8133 101.434 9.46 100.968 7.14H104.348C104.481 7.92667 104.628 8.74667 104.788 9.6C104.948 10.44 105.114 11.2867 105.288 12.14C105.461 12.9933 105.634 13.82 105.808 14.62C105.994 15.42 106.181 16.16 106.368 16.84C106.608 16.1867 106.841 15.4933 107.068 14.76C107.294 14.0267 107.514 13.2933 107.728 12.56C107.941 11.8267 108.134 11.12 108.308 10.44C108.494 9.76 108.661 9.15333 108.808 8.62H111.468ZM131.732 21V7.14H141.092V9.76H134.852V12.48H140.392V15.04H134.852V18.38H141.552V21H131.732ZM158.521 6.98C160.601 6.98 162.195 7.35333 163.301 8.1C164.408 8.83333 164.961 9.98 164.961 11.54C164.961 12.5133 164.735 13.3067 164.281 13.92C163.841 14.52 163.201 14.9933 162.361 15.34C162.641 15.6867 162.935 16.0867 163.241 16.54C163.548 16.98 163.848 17.4467 164.141 17.94C164.448 18.42 164.741 18.9267 165.021 19.46C165.301 19.98 165.561 20.4933 165.801 21H162.301C162.048 20.5467 161.788 20.0867 161.521 19.62C161.268 19.1533 161.001 18.7 160.721 18.26C160.455 17.82 160.188 17.4067 159.921 17.02C159.655 16.62 159.388 16.26 159.121 15.94H157.581V21H154.461V7.34C155.141 7.20667 155.841 7.11333 156.561 7.06C157.295 7.00667 157.948 6.98 158.521 6.98ZM158.701 9.64C158.475 9.64 158.268 9.64667 158.081 9.66C157.908 9.67333 157.741 9.68667 157.581 9.7V13.46H158.461C159.635 13.46 160.475 13.3133 160.981 13.02C161.488 12.7267 161.741 12.2267 161.741 11.52C161.741 10.84 161.481 10.36 160.961 10.08C160.455 9.78667 159.701 9.64 158.701 9.64Z" fill="white"/>
<g opacity="0.8">
<g opacity="0.8">
<g opacity="0.8">
<g opacity="0.8">
<g opacity="0.8">
<path opacity="0.8" d="M17.6452 37.6533L17.6035 37.663L17.6174 37.7789L17.6452 37.6533Z" fill="#EBD7E1"/>
<path opacity="0.8" d="M17.4573 38.2173C17.4782 38.2125 17.4921 38.2342 17.5129 38.2294L17.5291 37.8213C17.3439 37.8623 17.5801 38.1883 17.4573 38.2173Z" fill="#EBD7E1"/>
<path opacity="0.8" d="M17.3818 38.2832C17.2614 38.3484 17.3054 38.4571 17.3124 38.5054C17.2823 38.416 17.4884 38.3363 17.3818 38.2832Z" fill="#EBD7E1"/>
<path opacity="0.8" d="M7.49219 40.8574C7.50377 40.8625 7.51766 40.8675 7.52924 40.8701C7.51534 40.8574 7.50145 40.8523 7.49219 40.8574Z" fill="#EBD7E1"/>
<path opacity="0.8" d="M10.4188 41.9975C10.4166 41.9975 10.4144 41.9975 10.4122 41.9951C10.3944 41.9999 10.4033 41.9999 10.4188 41.9975Z" fill="#EBD7E1"/>
<path opacity="0.8" d="M18.8825 37.5518C18.8616 37.5735 18.8431 37.5904 18.8223 37.6049C18.8385 37.6145 18.8639 37.5711 18.8825 37.5518Z" fill="#EBD7E1"/>
</g>
</g>
</g>
</g>
</g>
<path d="M6.9399 3.98537C6.56938 4.04815 6.73611 4.11818 7.0858 4.33793C7.53275 4.61804 7.96118 4.5456 8.42665 4.44901C8.59571 4.4152 9.03339 4.3331 9.41319 4.21236C8.60265 4.03367 7.77823 3.84048 6.9399 3.98537Z" fill="white"/>
<path d="M9.99194 3.65956C9.81594 3.40118 9.32036 3.0124 9.21846 2.88925C8.85257 2.44735 8.57467 1.9499 8.15782 1.54905C7.70856 1.1168 6.94434 0.513111 6.30518 0.5276C5.17738 0.554162 6.37234 1.82675 6.73823 2.14067C7.72708 2.99067 8.71825 3.55814 9.99194 3.65956C9.99194 3.66198 9.99194 3.65956 9.99194 3.65956Z" fill="white"/>
<path d="M10.5171 0.976695C10.2253 1.40411 10.2461 2.01263 10.2762 2.53664C10.2971 2.88678 10.3758 3.24175 10.5009 3.56533C10.524 3.60639 10.5449 3.64502 10.5611 3.68607C10.5634 3.6909 10.568 3.69573 10.5703 3.70298C10.9154 3.37215 11.1585 2.78053 11.3299 2.40624C11.4758 2.08266 11.6263 1.57073 11.5453 1.19161C11.3971 0.508228 10.8343 0.513058 10.5171 0.976695Z" fill="white"/>
<path d="M16.0529 4.9502C15.7587 4.96468 15.467 4.98159 15.1728 4.99608C15.1265 5.12406 15.0779 5.24963 15.0316 5.37761C14.8347 6.03443 14.6796 6.72264 14.6703 7.41085C14.6657 7.68855 14.7027 7.95901 14.719 8.23188C15.2354 7.90347 15.6522 7.47847 15.9301 6.86028C16.1084 6.46184 16.2265 6.01753 16.1964 5.57562C16.1872 5.45488 16.1594 5.02988 16.0529 4.9502Z" fill="white"/>
<path d="M12.0628 8.36184C11.8104 8.35219 11.5464 8.3546 11.2939 8.37633C10.9118 8.40773 10.6501 8.31355 10.8331 8.74821C10.9998 9.14182 11.236 9.03315 11.6205 9.009C11.9099 8.98969 12.1994 8.95346 12.4866 8.90517C12.7367 8.86412 13.2323 8.78443 13.5403 8.59608C13.0563 8.46085 12.5584 8.38116 12.0628 8.36184Z" fill="white"/>
<path d="M17.9912 12.4488C18.5308 11.85 19.2463 10.7875 18.9823 9.9133C18.7253 9.05847 17.9842 9.68873 17.7943 10.1693C17.6646 10.4929 17.6021 10.8792 17.5303 11.2221C17.3821 11.9224 17.3404 12.6227 17.3242 13.3326C17.5651 13.067 17.8615 12.5937 17.9912 12.4488Z" fill="white"/>
<path d="M16.4849 13.8212C16.0356 13.7125 15.4451 13.7535 15.0722 13.7487C14.5303 13.7415 13.5554 13.5338 13.0251 13.7584C12.3628 14.0409 13.083 14.3572 13.3956 14.4562C13.912 14.6205 14.4493 14.618 14.975 14.5118C15.3316 14.4393 16.0704 14.181 16.4849 13.8212Z" fill="white"/>
<path d="M19.3011 18.746C19.322 18.7653 19.3405 18.7919 19.3544 18.8257C19.4076 18.9585 20.5493 18.3645 20.6281 18.3089C21.2487 17.8622 21.5822 17.1595 21.6239 16.3868C21.7119 16.1936 21.691 16.0028 21.5613 15.8193C21.5544 15.4378 21.4085 15.3629 21.1237 15.5971C20.7925 15.7227 20.7439 15.7541 20.5586 16.0294C20.3363 16.3626 20.1719 16.7321 19.938 17.0605C19.7249 17.3575 19.5049 17.628 19.359 17.9684C19.2849 18.1375 19.2432 18.3137 19.1992 18.49C19.2965 18.5528 19.322 18.6542 19.3011 18.746Z" fill="white"/>
<path d="M15.9389 18.858C16.2724 18.9425 18.2362 19.2564 18.6021 18.7614C18.3242 18.6552 18.0255 18.5803 17.7568 18.4692C17.3608 18.305 16.9718 18.1215 16.5735 17.967C16.1798 17.8148 15.7722 17.6772 15.353 17.6313C15.0821 17.6023 14.3132 17.5323 14.1465 17.7931C13.8501 18.2543 15.6263 18.7783 15.9389 18.858Z" fill="white"/>
<path d="M20.9114 26.0914C21.3491 26.0769 21.7868 26.0045 22.2059 25.862C22.7733 25.6688 23.9266 25.0869 23.5167 24.2658C23.2897 23.8118 22.5 23.9616 22.1249 24.1668C21.7497 24.3697 21.4857 24.7295 21.2009 25.041C20.879 25.3935 20.388 25.7244 20.043 26.1276C20.3348 26.1469 20.6775 26.1011 20.9114 26.0914Z" fill="white"/>
<path d="M15.3699 24.7988C15.796 25.074 16.2731 25.26 16.7455 25.4218C17.2388 25.5908 18.5333 26.151 19.2257 26.0303C19.2234 26.0182 19.2165 26.011 19.2165 25.9989C19.1979 25.8395 18.5866 25.5039 18.4685 25.4169C18.0979 25.1537 17.732 24.8881 17.3661 24.6201C16.8312 24.2265 15.6061 23.2243 14.9068 23.3427C13.86 23.5141 15.0596 24.5959 15.3699 24.7988Z" fill="white"/>
<path d="M17.7203 32.458C17.542 32.0548 17.1436 31.4945 16.9838 31.241C16.6226 30.6663 16.127 30.1712 15.7102 29.6376C15.2887 29.1015 14.5129 28.1935 13.7626 28.1766C13.4939 28.0245 13.4036 28.1066 13.487 28.423C13.4268 28.6185 13.4638 28.7876 13.5958 28.9276C13.6931 29.1377 13.8598 29.3695 13.9872 29.5627C14.3276 30.0747 14.7491 30.4562 15.2146 30.8426C15.8723 31.3907 16.7754 32.2842 17.6554 32.6464C17.6531 32.5788 17.6763 32.5112 17.7203 32.458Z" fill="white"/>
<path d="M21.784 32.9855C22.4625 33.0097 23.0808 33.0266 23.6991 32.674C24.0349 32.4809 24.6486 32.2056 24.0882 31.6526C23.9354 31.5005 23.5139 31.5391 23.3309 31.5343C22.1869 31.5125 20.9734 31.9037 19.9776 32.4736C19.8202 32.563 19.6534 32.6716 19.4844 32.7779C19.6951 32.7996 19.9035 32.8189 20.1004 32.8431C20.6608 32.9131 21.2212 32.9662 21.784 32.9855Z" fill="white"/>
<path d="M8.09145 34.3058C10.1317 33.8783 11.6809 31.4491 11.1506 29.3048C10.6041 27.0952 8.14008 26.0593 6.14385 26.209C4.11752 26.3611 1.95456 27.7521 0.877708 29.5559C-0.370512 31.6447 -0.252406 34.9263 1.00971 36.9717C3.8952 41.6443 11.234 40.432 14.9323 37.5971C19.3208 34.2357 20.6802 27.5999 20.0016 22.2246C19.5593 18.7184 18.3435 15.3353 16.7248 12.2419C15.8957 10.6554 14.9624 9.10756 13.9412 7.64662C12.9338 6.205 11.7041 5.06281 10.5601 3.75642C10.347 3.51494 9.99967 3.86991 10.2127 4.11139C11.0418 5.05798 11.982 5.87659 12.7624 6.87148C13.6054 7.94606 14.3441 9.10756 15.0528 10.2811C16.4145 12.5414 17.5886 14.9248 18.413 17.4554C20.0317 22.4299 20.2054 28.1215 17.9799 32.9438C15.8911 37.4691 11.2363 39.8621 6.49586 39.4999C3.88131 39.2995 1.3895 37.8168 0.731812 35.0181C0.178334 32.6613 0.632232 30.0654 2.45246 28.4644C4.33058 26.8127 7.10028 25.9627 9.27946 27.5299C10.4188 28.3485 11.0117 29.5921 10.6388 31.0265C10.2822 32.4005 9.33735 33.5282 7.97103 33.8156C7.65839 33.8783 7.78344 34.3685 8.09145 34.3058Z" fill="black"/>
<path d="M10.2309 3.75668C8.86222 3.69873 7.82242 3.11194 6.78263 2.22089C6.41441 1.90455 5.22177 0.634378 6.34957 0.607815C6.98873 0.593327 7.75295 1.19702 8.20222 1.62927C8.61906 2.03012 8.89696 2.52756 9.26286 2.96947C9.39023 3.12401 10.1336 3.68907 10.0989 3.90398C10.0433 4.23722 8.78812 4.46421 8.47317 4.52941C8.00537 4.626 7.57926 4.69603 7.13231 4.41592C6.78263 4.19859 6.61589 4.12614 6.98642 4.06336C7.98685 3.89191 8.96412 4.19617 9.92518 4.39177C10.2563 4.45938 10.7102 4.51251 10.7102 4.0368C10.7102 3.9064 10.5944 3.76393 10.5528 3.65768C10.4231 3.32927 10.3443 2.96947 10.3212 2.61449C10.2888 2.09049 10.2679 1.48196 10.562 1.05455C10.8793 0.590912 11.442 0.586083 11.5902 1.26946C11.6713 1.64858 11.5208 2.16293 11.3749 2.4841C11.1502 2.97913 10.7982 3.85086 10.254 4.00299C10.3559 4.08509 10.4578 4.16961 10.5597 4.25171C10.5551 4.201 10.5528 4.14788 10.5481 4.09717C10.5273 3.77359 10.0387 3.76393 10.0595 4.09234C10.0641 4.14305 10.0664 4.19617 10.0711 4.24688C10.0827 4.40867 10.2147 4.54148 10.3768 4.4956C11.2081 4.26137 11.6713 3.1868 11.9492 2.39958C12.1669 1.7814 12.3058 0.49915 11.6366 0.105542C11.0669 -0.232527 10.4717 0.310798 10.1498 0.759946C9.82097 1.21875 9.84644 1.54233 9.84412 2.10015C9.84412 2.3706 9.82791 2.62657 9.85802 2.89702C9.88349 3.13126 10.0502 3.48381 10.0317 3.7108C10.0178 3.86052 10.166 3.83154 10.0572 3.9064C9.96223 3.9716 9.41338 3.73736 9.32538 3.71322C8.77422 3.5635 8.27169 3.55143 7.69737 3.55867C7.3361 3.5635 6.30557 3.38239 6.21062 3.96435C6.10178 4.6429 7.26663 5.10413 7.73906 5.13069C8.65612 5.18623 9.88118 4.76847 10.5852 4.15029C10.6523 4.09234 10.6686 3.9885 10.65 3.90398C10.5504 3.44035 9.98539 3.02018 9.69128 2.67969C9.2397 2.1581 8.89001 1.56648 8.36432 1.10526C7.72053 0.542616 6.33336 -0.416049 5.53209 0.385656C4.76556 1.15114 6.01146 2.22089 6.52557 2.65554C7.64874 3.60455 8.75801 4.20342 10.2239 4.2662C10.5389 4.27827 10.5435 3.77117 10.2309 3.75668Z" fill="black"/>
<path d="M13.8856 8.80225C13.9087 8.80949 13.9319 8.81432 13.955 8.82157C13.9087 8.696 13.8601 8.57043 13.8138 8.44728C13.6354 8.80225 12.8666 8.9254 12.5331 8.98094C12.246 9.02924 11.9565 9.06546 11.667 9.08478C11.2826 9.10893 11.0441 9.21759 10.8796 8.82398C10.6967 8.38932 10.9584 8.4835 11.3405 8.45211C11.5929 8.43037 11.8569 8.43037 12.1093 8.43762C12.7578 8.46177 13.4085 8.58975 14.0222 8.80949C14.0453 8.64287 14.0685 8.47625 14.0917 8.31205C14.0731 8.30964 14.0546 8.30964 14.0361 8.30722C13.7234 8.27824 13.7188 8.78776 14.0314 8.81674C14.05 8.81915 14.0685 8.81915 14.087 8.82157C14.3719 8.84813 14.4043 8.41106 14.1565 8.32412C13.5752 8.11645 9.45773 7.29302 10.1062 8.99543C10.4211 9.82612 11.4702 9.63535 12.1417 9.55324C12.7392 9.4808 13.9041 9.36489 14.2329 8.7129C14.3047 8.57043 14.2514 8.38208 14.0917 8.33861C14.0685 8.33137 14.0453 8.32654 14.0222 8.31929C13.7165 8.22995 13.5822 8.72015 13.8856 8.80225Z" fill="black"/>
<path d="M14.0889 8.98693C14.1028 8.99901 14.1167 9.01108 14.1306 9.02316C14.2232 9.10284 14.3181 9.11733 14.4247 9.06662C15.4761 8.57401 16.2426 7.84475 16.5946 6.67116C16.8123 5.94673 16.8563 4.77074 16.099 4.36022C15.2213 3.88451 14.7466 4.80454 14.5474 5.55554C14.3923 6.14474 14.2556 6.70014 14.2047 7.30625C14.1584 7.84233 14.383 8.36392 14.2464 8.90242C14.383 8.8662 14.5196 8.82997 14.6539 8.79375C14.6331 8.76719 14.6146 8.74063 14.5937 8.71648C14.3969 8.46051 14.0518 8.8179 14.2464 9.07145C14.2672 9.09801 14.2857 9.12458 14.3066 9.14872C14.4224 9.30085 14.6725 9.21392 14.7142 9.04006C14.8462 8.51847 14.7049 8.00895 14.7118 7.48736C14.7234 6.79915 14.8763 6.11094 15.0731 5.45412C15.1194 5.32613 15.1681 5.20057 15.2144 5.07258C15.5085 5.05809 15.8003 5.04119 16.0944 5.0267C16.2009 5.10397 16.2287 5.53139 16.238 5.65213C16.2681 6.09403 16.15 6.53835 15.9716 6.93679C15.5988 7.77472 14.9689 8.25526 14.1838 8.62472C14.2811 8.63921 14.3807 8.6537 14.4779 8.66818C14.464 8.65611 14.4502 8.64404 14.4363 8.63196C14.1977 8.42429 13.848 8.77685 14.0889 8.98693Z" fill="black"/>
<path d="M16.8092 13.524C16.6355 14.0745 15.4938 14.4947 15.026 14.5889C14.5003 14.6951 13.963 14.6975 13.4466 14.5333C13.134 14.4343 12.4138 14.118 13.0761 13.8355C13.6064 13.6109 14.5814 13.8186 15.1233 13.8258C15.6142 13.833 16.4919 13.7582 16.918 14.0552C17.1797 14.2387 17.4275 13.8017 17.1681 13.6181C16.8647 13.4032 16.3993 13.4105 16.0403 13.3694C15.2923 13.2873 14.5304 13.3018 13.7778 13.2945C13.2799 13.2897 11.8927 13.2921 12.1637 14.2025C12.4277 15.0936 14.0348 15.2191 14.7134 15.1467C15.5193 15.0598 16.9898 14.5768 17.2816 13.6592C17.3765 13.3525 16.9087 13.2124 16.8092 13.524Z" fill="black"/>
<path d="M16.875 13.9195C16.875 13.934 16.875 13.9509 16.875 13.9654C17.0371 13.9678 17.1992 13.9702 17.3636 13.9702C17.3729 13.0695 17.3914 12.1833 17.579 11.2995C17.6508 10.959 17.7156 10.5702 17.843 10.2466C18.0352 9.7661 18.774 9.13584 19.031 9.99067C19.295 10.8648 18.5794 11.9273 18.0399 12.5262C17.8615 12.7242 17.3613 13.5501 17.1367 13.5935C16.8287 13.6539 16.9537 14.1465 17.2617 14.0861C17.5582 14.0258 17.7156 13.7408 17.894 13.5114C18.3479 12.927 18.8133 12.3789 19.1816 11.7221C19.5637 11.0435 19.8022 9.82888 19.2047 9.18655C18.5679 8.50317 17.7851 9.20829 17.4702 9.86269C16.8889 11.0725 16.8889 12.6493 16.875 13.963C16.8727 14.289 17.359 14.2962 17.3636 13.9678C17.3636 13.9533 17.3636 13.9364 17.3636 13.9219C17.366 13.5959 16.8773 13.5911 16.875 13.9195Z" fill="black"/>
<path d="M18.7117 18.6922C18.6469 19.3949 16.3496 19.0278 15.9883 18.9361C15.6734 18.8564 13.8995 18.3324 14.1959 17.8712C14.3627 17.6104 15.1338 17.6804 15.4024 17.7094C15.8216 17.7552 16.2292 17.8929 16.6229 18.045C17.0212 18.1996 17.4103 18.3831 17.8063 18.5473C18.186 18.7067 18.6307 18.7864 18.9873 18.9964C19.2606 19.1582 19.5107 18.7236 19.2374 18.5594C18.6839 18.2285 18.0054 18.0861 17.4126 17.8301C16.7641 17.5524 16.1111 17.2723 15.4071 17.1998C14.8976 17.1467 13.2094 17.2699 13.6123 18.2189C13.9713 19.0616 15.7267 19.448 16.4608 19.547C17.2296 19.6508 19.0938 19.8416 19.1981 18.697C19.2282 18.3734 18.7395 18.3686 18.7117 18.6922Z" fill="black"/>
<path d="M18.9771 19.1523C19.2249 19.7608 20.3249 19.1692 20.6908 18.9712C21.7353 18.4037 22.2401 17.1528 22.2725 15.9744C22.3026 14.9168 21.1007 14.854 20.5056 15.4311C20.0169 15.9068 19.7113 16.6385 19.3153 17.2011C18.9424 17.7324 18.8799 18.2854 18.6414 18.8697C18.5186 19.1692 18.9887 19.3068 19.1091 19.0098C19.2388 18.6959 19.2666 18.3578 19.4033 18.0439C19.5515 17.7034 19.7692 17.433 19.9822 17.1359C20.2184 16.8075 20.3805 16.4405 20.6028 16.1048C20.7881 15.8271 20.8367 15.7957 21.1679 15.6726C21.4527 15.4384 21.5986 15.5108 21.6056 15.8947C21.7353 16.0783 21.7561 16.2666 21.6681 16.4622C21.6264 17.2374 21.293 17.9401 20.6723 18.3844C20.5959 18.4399 19.4542 19.034 19.3986 18.9011C19.2782 18.5993 18.8544 18.8528 18.9771 19.1523Z" fill="black"/>
<path d="M19.5703 25.9805C19.0469 26.4345 17.368 25.6956 16.7913 25.4975C16.3189 25.3358 15.8419 25.1498 15.4158 24.8745C15.1054 24.6741 13.9058 23.5923 14.9526 23.416C15.652 23.2977 16.877 24.2998 17.412 24.6934C17.7779 24.9639 18.1438 25.2271 18.5143 25.4903C18.6347 25.5748 19.2438 25.9129 19.2623 26.0723C19.2994 26.3934 19.7857 26.4031 19.7509 26.0771C19.7046 25.6666 19.3758 25.5072 19.0724 25.2826C18.373 24.7659 17.676 24.2129 16.9419 23.7541C16.3675 23.3967 14.5774 22.2593 14.0726 23.2929C13.5399 24.3819 15.2351 25.3961 15.9368 25.7052C16.7543 26.065 17.6459 26.3234 18.5143 26.5045C18.9682 26.5987 19.5356 26.6663 19.913 26.3403C20.1539 26.135 19.8112 25.7728 19.5703 25.9805Z" fill="black"/>
<path d="M19.5986 26.0784C19.5801 26.0857 19.5639 26.0905 19.5454 26.0977C19.3694 26.1629 19.2744 26.46 19.4828 26.5614C19.9784 26.8029 20.694 26.7063 21.229 26.6604C21.882 26.6073 22.5281 26.4286 23.1071 26.1098C23.7509 25.7548 24.3923 24.9386 24.0566 24.1273C23.686 23.2338 22.3429 23.497 21.7361 23.9244C21.1734 24.318 20.7426 24.9362 20.2355 25.4047C19.8534 25.7597 19.4388 26.1243 19.2698 26.6483C19.2304 26.7715 19.3115 26.9357 19.4365 26.9622C19.4597 26.9671 19.4828 26.9719 19.5083 26.9767C19.814 27.0395 19.9506 26.5517 19.6426 26.4889C19.6195 26.4841 19.5963 26.4793 19.5708 26.4744C19.6264 26.5783 19.682 26.6845 19.7376 26.7884C19.9599 26.0929 20.7774 25.6244 21.2428 25.1173C21.5277 24.8058 21.794 24.446 22.1669 24.2432C22.542 24.0379 23.3317 23.8882 23.5587 24.3422C23.9686 25.1632 22.8153 25.7476 22.2479 25.9384C21.8311 26.0808 21.3934 26.1533 20.9534 26.1678C20.6129 26.1798 20.0386 26.2764 19.7283 26.1243C19.7075 26.2788 19.6866 26.4334 19.6658 26.5879C19.6843 26.5807 19.7005 26.5759 19.719 26.5686C20.0178 26.4624 19.895 25.9698 19.5986 26.0784Z" fill="black"/>
<path d="M18.1662 32.865C17.1518 32.6911 16.0356 31.5658 15.2622 30.9211C14.7967 30.5323 14.3752 30.1532 14.0348 29.6413C13.9074 29.4481 13.7407 29.2187 13.6434 29.0062C13.5091 28.8637 13.472 28.6971 13.5346 28.5015C13.4512 28.1852 13.5415 28.1031 13.8101 28.2552C14.5628 28.2721 15.3386 29.18 15.7577 29.7161C16.1746 30.2474 16.6702 30.7424 17.0314 31.3195C17.2375 31.6479 17.842 32.4883 17.8559 32.8384C17.8698 33.1644 18.3375 33.1741 18.3445 32.8433C18.3445 32.8239 18.3445 32.8046 18.3445 32.7853C18.3491 32.4593 17.8628 32.4521 17.8559 32.7805C17.8559 32.7998 17.8559 32.8191 17.8559 32.8384C18.018 32.8408 18.1801 32.8433 18.3445 32.8433C18.3167 32.1309 17.8072 31.6479 17.4552 31.0684C17.0222 30.3585 16.4085 29.7161 15.8828 29.0762C15.408 28.4991 14.0487 27.3424 13.2127 27.7457C12.2354 28.2166 13.5554 29.8827 13.9352 30.3488C14.484 31.0249 15.2344 31.5586 15.9175 32.0754C16.5312 32.539 17.263 33.2224 18.0295 33.3552C18.3375 33.4059 18.4742 32.9181 18.1662 32.865Z" fill="black"/>
<path d="M17.8169 32.9148C18.4097 33.2649 19.1716 33.2988 19.8363 33.3881C20.6908 33.504 21.5453 33.5789 22.4068 33.5861C23.1919 33.5934 25.1024 33.1104 24.9959 31.9537C24.9009 30.9033 23.0923 31.082 22.4323 31.1834C21.7283 31.2921 21.0428 31.4997 20.3921 31.7943C20.0262 31.961 19.7019 32.1831 19.3523 32.3715C19.079 32.5188 18.5 32.8689 18.2013 32.8544C18.199 33.0235 18.1967 33.1925 18.1967 33.364C18.2152 33.364 18.2314 33.364 18.2499 33.364C18.5626 33.3664 18.5695 32.8593 18.2546 32.8544C18.236 32.8544 18.2198 32.8544 18.2013 32.8544C17.8863 32.852 17.8817 33.3495 18.1967 33.364C18.8405 33.3929 19.475 32.8641 20.0238 32.5502C21.0196 31.9803 22.2308 31.5915 23.3771 31.6108C23.5601 31.6132 23.9792 31.577 24.1344 31.7291C24.6948 32.2821 24.0811 32.5598 23.7453 32.7506C23.127 33.1032 22.5087 33.0838 21.8302 33.0621C21.2651 33.0428 20.707 32.9921 20.1466 32.9196C19.4819 32.8351 18.6645 32.8303 18.0693 32.4777C17.796 32.3159 17.5436 32.753 17.8169 32.9148Z" fill="black"/>
</svg>
